<svg width="74" height="32" viewBox="0 0 74 32" fill="none" xmlns="http://www.w3.org/2000/svg">
<path d="M8.95275 0.12393L10.9423 15.0053H11.3235L13.313 0.12393H22.2657V31.8761H15.5312L15.7599 18.2945H15.3787L13.1605 31.8761H9.10523L6.88701 18.2945H6.50581L6.73453 31.8761H0V0.12393H8.95275Z" fill="white"/>
<path d="M55.9275 0.12393H43.8017L41.1224 29.4146H40.7412L38.022 0.12393H25.8962L23.0281 31.4949V31.8761H29.8389L30.2963 24.4154H32.7832L33.2406 31.8761H47.7408L48.1982 24.4154H50.6851L51.1462 31.8761H58.8355V31.4949L55.9275 0.12393ZM30.6775 18.2945L31.3673 8.00569H31.7485L32.3984 18.2945H30.6775ZM48.5794 18.2945L49.2692 8.00569H49.6504L50.3003 18.2945H48.5794Z" fill="white"/>
<path d="M74 0.12393V6.85846H69.6398V31.8761H61.6056V6.85846H57.2453V0.12393H74Z" fill="white"/>
</svg>
