<svg width="80" height="80" viewBox="0 0 80 80" fill="none" xmlns="http://www.w3.org/2000/svg">
<rect width="80" height="80" fill="#13151B"/>
<path d="M39.9581 24.1876C40.1676 24.0963 40.3824 24.2252 40.5758 24.2986C43.025 25.4282 45.5351 26.4397 47.8823 27.7769C47.8842 27.9702 47.8842 28.1636 47.8859 28.3588C47.7695 28.5736 47.6586 28.7885 47.5475 29.005C45.7661 28.0759 44.0294 27.0465 42.1674 26.2839C43.82 28.3373 45.3597 30.5518 46.1976 33.0723C46.142 33.4627 45.8002 33.7241 45.5424 33.9926C44.0133 31.3986 42.957 28.3999 40.5597 26.4361C40.6527 29.5116 40.6492 32.5909 40.6063 35.6664C40.2213 35.6754 39.8382 35.6861 39.4532 35.7022C39.4066 33.8637 39.4442 32.027 39.4246 30.1902C39.455 28.9155 39.3529 27.6301 39.5553 26.3663C39.1327 26.6885 38.7066 27.0143 38.3575 27.4171C36.7229 29.3702 35.7722 31.7584 34.4939 33.9353C34.2737 33.647 34.0588 33.3535 33.8494 33.0581C34.8287 30.6736 35.9244 28.2675 37.7308 26.3824C35.8868 27.0626 34.2307 28.1547 32.4188 28.9066C32.2952 28.5539 32.1771 28.2012 32.0589 27.8467C32.5369 27.5478 33.0222 27.2632 33.5288 27.0143C35.6326 25.9885 37.7631 25.0075 39.9581 24.1876Z" fill="white"/>
<path d="M19.068 13.8169C20.9657 14.4596 22.6398 15.5767 24.4194 16.4718C26.7612 17.6426 29.0153 18.9727 31.273 20.2956C30.7341 21.0386 29.9946 21.6956 29.8137 22.6373C29.5506 23.9566 29.7224 25.3458 30.2256 26.5918C30.7358 27.9434 31.2551 29.2933 31.7063 30.6682C31.2891 30.6968 30.8791 30.7702 30.4763 30.883C30 29.5546 29.513 28.2299 29.0296 26.9033C28.6017 25.7218 28.2634 24.4633 28.3994 23.1976C28.4961 22.2756 28.9419 21.4521 29.2893 20.6089C28.2329 19.8821 27.0835 19.3092 25.9663 18.6845C24.5339 17.9326 23.1232 17.1162 21.5817 16.6078C22.0543 17.8807 22.6952 19.0783 23.2448 20.3189C24.5285 23.1779 25.9036 25.9957 27.1623 28.8671C26.7952 29.5797 26.7988 30.3943 26.8149 31.1765C25.2644 27.2005 23.2521 23.4285 21.5243 19.5312C20.6774 17.639 19.6713 15.8076 19.068 13.8169Z" fill="#D22941"/>
<path d="M58.0821 15.0915C59.0579 14.5383 59.9979 13.9064 61.0506 13.5C60.7212 14.4112 60.2772 15.2759 59.8761 16.1567C59.074 17.8914 58.3955 19.6798 57.6113 21.4235C56.1396 24.8159 54.4424 28.1028 52.9545 31.4863C52.8381 31.497 52.6054 31.5167 52.489 31.5275C52.6 31.0226 52.7576 30.5303 52.9455 30.0487C52.8095 29.8267 52.6716 29.6065 52.5356 29.3846C53.497 27.3795 54.4065 25.3494 55.4341 23.3766C56.4869 21.0654 57.6507 18.7901 58.417 16.3625C57.1099 16.8728 55.9766 17.7177 54.7378 18.3586C53.386 19.1231 52.0002 19.8338 50.7129 20.7038C51.0603 21.6938 51.5562 22.6641 51.583 23.7329C51.6099 24.8338 51.3432 25.9187 50.9726 26.9498C50.507 28.2407 50.0308 29.5277 49.5688 30.8221C49.551 30.1829 49.5116 29.5457 49.5026 28.9084C49.2592 29.1322 48.996 29.3363 48.7507 29.5582C49.3881 27.4834 50.5178 25.4389 50.2815 23.2047C50.1884 22.1038 49.4579 21.2337 48.7274 20.4675C49.1733 20.1077 49.6423 19.7765 50.1436 19.4954C52.7683 17.9899 55.4575 16.5971 58.0821 15.0915Z" fill="#D22941"/>
<path d="M48.7507 29.5582C48.996 29.3363 49.2592 29.1322 49.5026 28.9084C49.5116 29.5457 49.551 30.1829 49.5688 30.8221C49.2233 32.1056 48.6469 33.3105 48.1957 34.5583C47.9755 35.0739 47.809 35.6771 47.3148 36.003C46.7258 36.3914 46.0651 36.6564 45.4599 37.018C44.9264 37.2956 44.4286 37.6822 43.8325 37.8146C43.4028 37.7717 43.0483 37.487 42.683 37.2848C42.8836 37.1379 43.0805 36.9841 43.2775 36.83C44.255 36.3091 45.2541 35.824 46.2048 35.2528C46.672 34.9933 46.9638 34.5278 47.1303 34.0319C47.6532 32.5353 48.1384 31.0226 48.7507 29.5582Z" fill="#D22941"/>
<path d="M49.9843 34.9198C50.8544 33.0831 51.6314 31.2052 52.5356 29.3846C52.6716 29.6065 52.8095 29.8267 52.9455 30.0487C52.7576 30.5303 52.6 31.0226 52.489 31.5275C52.6054 31.5167 52.8381 31.497 52.9545 31.4863C52.8149 31.8139 52.6752 32.1397 52.5266 32.462C51.6565 34.2683 50.7236 36.0442 49.8804 37.863C49.4364 38.921 48.1723 39.1055 47.3148 39.707C47.091 39.5547 46.869 39.4026 46.6469 39.2505C45.9541 39.5977 45.2648 39.9809 44.4985 40.1401C45.682 39.2021 47.0766 38.588 48.2941 37.7018C49.2072 37.0359 49.5098 35.8884 49.9843 34.9198Z" fill="#D22941"/>
<path d="M30.4763 30.883C30.8791 30.7702 31.2891 30.6968 31.7063 30.6682C32.0857 31.7745 32.4636 32.8809 32.8628 33.98C33.0347 34.4687 33.2908 34.9593 33.7581 35.2242C34.9451 35.9475 36.3469 36.3807 37.294 37.453C37.0022 37.6105 36.7139 37.7753 36.4239 37.9364C35.3084 37.607 34.4276 36.8176 33.3963 36.3181C32.8933 36.0745 32.3794 35.7613 32.1646 35.2171C31.5164 33.8081 31.0044 32.3402 30.4763 30.883Z" fill="#D22941"/>
<path d="M29.5417 35.6664C29.769 35.7577 29.9964 35.849 30.2292 35.9295C30.2453 35.8758 30.2775 35.7667 30.2937 35.713C30.6696 36.6152 31.1906 37.505 32.0786 37.9865C33.7705 38.9873 35.432 40.0542 37.1973 40.9225C37.0667 40.2064 36.9019 39.4975 36.7533 38.7867C37.8597 38.1566 39.0486 37.6285 39.9366 36.6868C40.0028 36.6779 40.1354 36.6599 40.2034 36.6528C41.1917 37.5068 42.3304 38.1495 43.4476 38.8189C43.2757 39.476 43.0805 40.124 42.9086 40.7811C43.4494 40.5931 43.9757 40.371 44.4985 40.1401C45.2648 39.9809 45.9541 39.5977 46.6469 39.2505C46.869 39.4026 47.091 39.5547 47.3148 39.707C44.9354 41.2 42.5363 42.6679 40.087 44.0428C38.8248 43.3893 37.6825 42.5319 36.4221 41.8748C34.8358 41.0443 33.323 40.0793 31.751 39.2217C31.1673 38.8799 30.4172 38.6651 30.1074 38.008C29.7888 37.403 29.5488 36.762 29.248 36.1516C29.3447 35.9905 29.4431 35.8275 29.5417 35.6664Z" fill="#D22941"/>
<path d="M27.1623 28.8671C28.1935 31.155 29.3465 33.3857 30.2937 35.713C30.2775 35.7667 30.2453 35.8758 30.2292 35.9295C29.9964 35.849 29.769 35.7577 29.5417 35.6664C29.4431 35.8275 29.3447 35.9905 29.248 36.1516C28.4084 34.5063 27.5256 32.8809 26.8149 31.1765C26.7988 30.3943 26.7952 29.5797 27.1623 28.8671Z" fill="#D22941"/>
<path d="M25.8535 36.6438C26.2348 35.7237 26.5607 34.7767 27.0656 33.912C27.2302 34.3739 27.5346 34.85 27.4004 35.3585C27.198 36.2751 26.917 37.1863 26.3996 37.9776C26.1184 37.7521 25.8374 37.5282 25.5544 37.3044C25.653 37.0842 25.755 36.864 25.8535 36.6438Z" fill="white"/>
<path d="M52.5105 34.5869C52.6752 34.3667 52.8399 34.1465 53.0117 33.9317C53.4952 34.7856 53.7566 35.7362 54.0842 36.6546C54.1827 36.9231 54.2883 37.1863 54.3975 37.4513C54.2507 37.6178 54.0967 37.7789 53.9463 37.9435C53.6045 37.7126 53.0708 37.607 52.9921 37.1362C52.7683 36.3001 52.5481 35.4552 52.5105 34.5869Z" fill="white"/>
<path d="M28.3493 42.2884C29.5882 41.7012 30.8665 41.1928 32.1968 40.858C32.741 40.9887 33.1546 41.4041 33.5378 41.7871C31.3499 42.2078 29.2051 42.9902 27.3127 44.17C27.7226 44.3794 28.1523 44.553 28.5981 44.6766C30.2775 45.1384 31.9319 45.6933 33.6434 46.0282C33.5396 46.098 33.3319 46.2394 33.2281 46.3092C33.5574 46.3773 33.8887 46.4435 34.22 46.5079C33.9675 46.7299 33.7312 46.9681 33.511 47.2222C30.897 46.7049 28.3869 45.799 25.8374 45.0471C25.8947 44.8162 25.9555 44.587 26.0236 44.3597C26.2204 43.9247 26.4729 43.5182 26.7253 43.1137C27.1425 42.9025 27.5544 42.6823 27.9714 42.471C28.0664 42.4245 28.2544 42.3332 28.3493 42.2884Z" fill="#D22941"/>
<path d="M52.2258 44.4581C52.3923 44.399 52.5571 44.3382 52.7236 44.2774C52.72 44.6694 52.7217 45.0615 52.7307 45.4535C50.7774 46.0353 48.8437 46.6923 46.8564 47.1488C42.4808 48.0852 37.892 48.1675 33.511 47.2222C33.7312 46.9681 33.9675 46.7299 34.22 46.5079C33.8887 46.4435 33.5574 46.3773 33.2281 46.3092C33.3319 46.2394 33.5396 46.098 33.6434 46.0282C38.139 47.0218 42.8442 46.8284 47.3237 45.8402C48.9548 45.373 50.5894 44.9129 52.2258 44.4581Z" fill="#D22941"/>
<path d="M46.434 41.6851C46.9101 41.327 47.4169 40.6432 48.0829 40.9261C49.4399 41.3199 50.747 41.857 52.0307 42.446C52.3691 42.6052 52.7075 42.7663 53.0547 42.9079C53.1389 42.9401 53.3037 43.0063 53.386 43.0403C53.5847 43.7313 53.7834 44.4224 53.9929 45.1116C53.5722 45.2261 53.1497 45.3389 52.7307 45.4535C52.7217 45.0615 52.72 44.6694 52.7236 44.2774C52.5571 44.3382 52.3923 44.399 52.2258 44.4581C52.2939 44.3794 52.4282 44.2218 52.4961 44.1449C50.5625 43.1352 48.5573 42.2151 46.434 41.6851Z" fill="#D22941"/>
<path d="M29.5864 47.181C29.8889 47.3709 30.3151 47.4639 30.4602 47.8255C30.6606 48.2104 30.7107 48.7243 31.1226 48.9569C31.8584 49.4206 32.6194 49.8414 33.3211 50.3587C33.7401 50.6236 34.2039 51.0551 34.7373 50.842C36.0658 50.4088 37.371 49.8861 38.6082 49.2309C38.4757 50.6397 38.3772 52.0522 38.2089 53.4575C38.0084 53.4451 37.8133 53.411 37.6217 53.3572C37.3585 52.643 37.4981 51.8571 37.4515 51.1123C36.5545 51.9233 35.7435 52.8256 34.8108 53.5954C34.211 54.1611 33.5306 54.6606 33.0364 55.3265C32.9774 55.9603 33.2227 56.5761 33.3355 57.1955C33.2585 57.5625 33.1653 57.9277 33.074 58.2929C32.8288 58.121 32.5835 57.951 32.3364 57.7809C32.1395 56.8733 31.9282 55.9603 31.5344 55.1153C31.751 54.8522 31.9712 54.5925 32.2112 54.3508C32.9702 53.6795 33.7795 53.0672 34.5135 52.3673C33.4644 51.9252 32.4868 51.3398 31.5737 50.6631C30.9363 50.1761 30.1558 49.8628 29.6186 49.2541C29.5005 48.5703 29.5703 47.8703 29.5864 47.181Z" fill="#D22941"/>
<path d="M48.6522 49.1593C49.3791 48.7116 49.4507 47.6697 50.3047 47.3672C50.4194 47.9741 50.6611 48.6598 50.3442 49.247C49.9001 49.8306 49.2251 50.1653 48.6289 50.5664C47.9235 50.987 47.288 51.517 46.5771 51.9269C46.2477 52.1471 45.8413 52.0683 45.4725 52.0522C45.1538 52.0182 44.8334 51.9914 44.5128 51.9789C44.5665 52.3978 44.6239 52.8167 44.6847 53.2337C43.9632 52.5696 43.2667 51.875 42.4825 51.2842C42.3966 51.9806 42.3232 52.6805 42.2784 53.3841C42.0475 53.3948 41.8183 53.4092 41.5892 53.4236C41.5551 52.0988 41.3671 50.7793 41.4137 49.4528C42.5363 49.8449 43.6212 50.3389 44.7402 50.74C45.1395 50.8706 45.6032 51.0498 45.997 50.7991C46.9084 50.2996 47.7875 49.7357 48.6522 49.1593Z" fill="#D22941"/>
<path d="M44.5128 51.9789C44.8334 51.9914 45.1538 52.0182 45.4725 52.0522C45.3812 52.0487 45.1967 52.0414 45.1054 52.038C45.87 52.9044 46.8422 53.5506 47.6281 54.3957C47.9038 54.691 48.1723 54.9935 48.4428 55.2943C48.0954 55.835 47.9647 56.4741 47.8161 57.0898C47.569 58.2196 47.2324 59.3599 47.3398 60.5307C46.9137 60.9603 46.4375 61.3326 46.0114 61.7606C45.8986 59.7287 46.57 57.7684 46.7973 55.7687C46.8314 55.4876 46.8027 55.1851 46.5807 54.9864C45.9953 54.3527 45.306 53.8299 44.6847 53.2337C44.6239 52.8167 44.5665 52.3978 44.5128 51.9789Z" fill="#D22941"/>
<path d="M33.3355 57.1955C33.7186 58.7923 34.032 60.4143 34.134 62.0559C33.6775 61.5887 33.2156 61.1232 32.6999 60.7186C32.6946 59.7268 32.553 58.7459 32.3364 57.7809C32.5835 57.951 32.8288 58.121 33.074 58.2929C33.1653 57.9277 33.2585 57.5625 33.3355 57.1955Z" fill="#D22941"/>
<path d="M39.6591 58.907C40.9034 58.8264 42.1388 59.0609 43.358 59.2829C43.7787 59.3777 44.2282 59.4368 44.6005 59.675C44.9032 59.956 44.5988 60.3588 44.5719 60.6918C43.4404 60.7902 42.3751 60.3571 41.2758 60.1852C40.0279 60.0705 38.7513 60.1064 37.5393 60.4484C36.782 60.6686 35.9959 60.776 35.2064 60.7562C35.2046 60.3857 35.2422 60.0151 35.3049 59.6516C36.7283 59.2668 38.1874 59.0125 39.6591 58.907Z" fill="#D22941"/>
<path d="M27.6511 46.8427C27.9751 46.9913 28.6106 46.9107 28.625 47.3851C28.6071 48.7009 28.4352 50.0096 28.2973 51.3183C29.5291 52.4193 30.8684 53.3913 32.2112 54.3508C31.9712 54.5925 31.751 54.8522 31.5344 55.1153C30.6858 54.6964 29.9607 54.0788 29.1514 53.5954C29.7815 55.1188 30.4082 56.6441 31.0491 58.164C31.3929 58.9732 31.7903 59.7663 32.3579 60.4465C32.3543 60.5199 32.3489 60.6686 32.3472 60.7419C31.9211 60.4108 31.5003 60.0724 31.0599 59.759C30.9812 60.008 30.9023 60.2604 30.82 60.5092C30.3652 59.7537 30.093 58.9087 29.7493 58.1014C29.0905 56.4204 28.3528 54.7697 27.7405 53.0709C27.5168 52.387 27.2141 51.6996 27.2607 50.9638C27.3269 49.5853 27.5544 48.2194 27.6511 46.8427Z" fill="white"/>
<path d="M31.0599 59.759C31.5003 60.0724 31.9211 60.4108 32.3472 60.7419C32.3489 60.6686 32.3543 60.5199 32.3579 60.4465C32.4439 60.5146 32.614 60.6506 32.6999 60.7186C33.2156 61.1232 33.6775 61.5887 34.134 62.0559C34.8519 62.8239 35.6253 63.5365 36.3917 64.2562C36.1214 64.5247 35.867 64.8111 35.6146 65.0957C33.9495 63.6403 32.3758 62.081 30.82 60.5092C30.9023 60.2604 30.9812 60.008 31.0599 59.759Z" fill="white"/>
<path d="M51.2197 47.156C51.5813 47.0647 51.9411 46.9752 52.3028 46.8875C52.4854 48.1765 52.5947 49.4779 52.6394 50.7812C52.6824 51.943 52.0844 52.9778 51.7478 54.0554C51.4148 55.1063 50.9833 56.1196 50.6145 57.1562C50.0595 58.5113 49.7085 60.0652 48.5573 61.0624C47.1161 62.3853 45.7589 63.796 44.3266 65.1279C44.0527 64.8362 43.7806 64.5443 43.4887 64.2704C44.3034 63.4057 45.2809 62.7058 46.0114 61.7606C46.4375 61.3326 46.9137 60.9603 47.3398 60.5307C48.0703 59.9006 48.5717 59.0662 48.8886 58.1622C49.5546 56.5689 50.2868 55.006 50.9243 53.4021C50.0398 53.9553 49.2824 54.6803 48.4428 55.2943C48.1723 54.9935 47.9038 54.691 47.6281 54.3957C48.9458 53.3054 50.3996 52.3852 51.592 51.1482C51.4273 49.8216 51.2859 48.4915 51.2197 47.156Z" fill="white"/>
<path d="M36.0533 54.9362C35.8707 54.5979 36.1678 54.0554 36.4705 53.8711C37.5697 54.5263 38.5115 55.4249 39.6395 56.0372C39.8471 56.1983 40.1049 56.1626 40.3484 56.1357C39.9384 56.4507 39.5213 56.7587 39.1077 57.0737C38.0943 56.3541 37.0416 55.6864 36.0533 54.9362Z" fill="white"/>
<path d="M40.3484 56.1357C41.3725 55.3212 42.4808 54.623 43.4798 53.7762C43.6481 54.1628 43.7645 54.571 43.8038 54.9918C42.7726 55.7168 41.7235 56.4131 40.7101 57.1633C40.4559 57.319 40.2069 57.5463 39.8937 57.5571C39.609 57.4372 39.3637 57.2438 39.1077 57.0737C39.5213 56.7587 39.9384 56.4507 40.3484 56.1357Z" fill="white"/>
<path d="M36.3917 64.2562C36.7211 63.941 37.0828 63.6581 37.4051 63.3359C37.7166 63.5526 38.0692 63.6976 38.4434 63.7602C38.1302 64.0592 37.8741 64.4083 37.6217 64.7574C37.3514 64.8953 37.0774 65.0295 36.8089 65.1726C37.4354 65.4753 38.0496 65.8064 38.6439 66.1752C37.6073 65.9084 36.4883 65.7653 35.6146 65.0957C35.867 64.8111 36.1214 64.5247 36.3917 64.2562Z" fill="#D22941"/>
<path d="M37.4051 63.3359C38.0477 62.482 38.9447 61.7301 40.035 61.5923C41.5856 61.8608 42.3698 63.3431 43.4887 64.2704C43.7806 64.5443 44.0527 64.8362 44.3266 65.1279C43.3329 65.7868 42.1478 66.0534 41.0198 66.3864C40.2284 66.6192 39.3959 66.467 38.6439 66.1752C38.0496 65.8064 37.4354 65.4753 36.8089 65.1726C37.0774 65.0295 37.3514 64.8953 37.6217 64.7574C38.4237 65.0134 39.224 65.3391 40.0745 65.3875C40.8944 65.384 41.65 65.008 42.3966 64.7108C41.7718 63.9571 41.0306 63.1909 40.0458 62.9528C39.4425 63.0405 38.9322 63.4201 38.4434 63.7602C38.0692 63.6976 37.7166 63.5526 37.4051 63.3359Z" fill="#D22941"/>
<path fill-rule="evenodd" clip-rule="evenodd" d="M21.2668 42.8646C21.6127 42.9565 21.9856 43.0362 22.3316 43.1661C22.6782 43.2962 23.0007 43.4774 23.2475 43.7742C23.5965 44.1876 23.9109 44.6283 24.2264 45.0669C24.5401 45.5027 24.8551 45.9365 25.2076 46.3413C25.5673 46.3112 25.9272 46.283 26.2887 46.2565L26.3175 46.2543L26.3124 46.2826C26.1239 47.3279 25.7533 48.3137 25.3416 49.2842C24.9296 50.2552 24.4768 51.2099 24.1217 52.1972L24.1218 52.1973C23.8557 52.9625 23.5351 53.7063 23.2204 54.451C22.9055 55.1959 22.5963 55.9421 22.3513 56.7135L22.3504 56.7163L22.3488 56.7189C22.1158 57.0807 21.8666 57.4341 21.6252 57.7916C21.1933 58.476 20.7168 59.1299 20.2354 59.7796L20.2347 59.7803C20.0557 59.9994 20.0072 60.2585 20.0007 60.5316C19.9973 60.6683 20.0044 60.8077 20.0106 60.9469C20.0166 61.0859 20.0217 61.2248 20.0141 61.359L20.0138 61.3618L20.013 61.3643C19.8148 62.0014 19.5461 62.609 19.2695 63.2121C18.9928 63.8156 18.7081 64.4143 18.4766 65.0354L18.4712 65.0497L18.4562 65.0501C17.9251 65.0627 17.4312 64.8487 17.0954 64.4312L17.0936 64.4291L17.0924 64.4264C16.2369 62.5186 15.3376 60.6252 14.6157 58.6586C14.4562 58.2647 14.4706 57.8217 14.6592 57.4404C15.3934 55.8271 16.3205 54.3096 17.1304 52.7383C17.6204 51.7816 18.1704 50.8582 18.7148 49.9329C19.2594 49.0073 19.7983 48.0798 20.2669 47.114L20.2671 47.1139C20.5055 46.6316 20.7691 46.1601 21.0541 45.703L21.0756 45.6688L21.0931 45.7049C21.2862 46.0991 21.4291 46.5165 21.5826 46.926C21.7267 47.3106 21.8803 47.6891 22.0941 48.0391L22.1376 48.1088L22.1377 48.1089C22.5627 48.7844 23.0313 49.4336 23.5518 50.0378C23.7343 49.6859 23.9429 49.327 24.098 48.9527C24.257 48.5692 24.3585 48.1723 24.3166 47.7567C24.0525 46.9427 23.5717 46.2193 23.1237 45.4902C22.6528 44.7219 21.7363 44.437 20.906 44.2057L20.8555 44.1917L20.9006 44.165C21.2645 43.9491 21.5638 43.6458 21.8591 43.3419C21.6564 43.193 21.4558 43.0447 21.2486 42.9048L21.2668 42.8646ZM18.0191 53.6309C17.7538 54.0897 17.5114 54.5605 17.2712 55.0317C17.031 55.5031 16.793 55.975 16.5364 56.4364L16.5361 56.437C16.2613 56.9724 15.9439 57.5114 15.8339 58.1189L15.8332 58.1229L15.8339 58.1266C15.9052 58.5415 16.0647 58.9255 16.2412 59.3016C16.4181 59.6785 16.6115 60.0464 16.7534 60.4328L16.7539 60.4341C16.9219 60.8181 17.068 61.2444 17.2656 61.6303C17.464 62.0174 17.7166 62.3692 18.1018 62.6084L18.123 62.6217L18.1338 62.5992C18.8698 61.0594 19.516 59.4784 20.1817 57.9075C20.4965 57.2963 20.1525 56.6697 19.7819 56.1971C19.1507 55.38 18.6235 54.4935 18.0571 53.6297L18.0372 53.5993L18.0191 53.6309ZM20.9281 48.6132C20.1637 49.8324 19.4725 51.1017 18.8351 52.3924C19.4994 53.5811 20.237 54.7448 21.1537 55.7579C21.5995 54.5961 22.1223 53.4664 22.654 52.3422C22.774 52.0002 23.0711 51.5832 22.7651 51.2556C22.1169 50.3982 21.6174 49.4384 20.9281 48.6132Z" fill="#D22941"/>
<path d="M25.3898 57.6019C26.55 57.3584 27.694 57.0165 28.8811 56.9324C28.9651 57.269 29.0476 57.6073 29.1299 57.9457C27.3413 58.6224 25.3969 58.7386 23.5851 59.3474C22.7346 59.5801 21.8644 59.7429 21.0338 60.042C20.4645 60.2443 20.2621 60.8761 19.9918 61.3578C20.0221 60.8261 19.8503 60.2156 20.2174 59.7663C20.6989 59.1165 21.1752 58.463 21.6066 57.7792C21.5978 58.0262 21.5924 58.2733 21.5888 58.5221C22.8868 58.3466 24.1115 57.8668 25.3898 57.6019Z" fill="#D22941"/>
<path d="M51.4971 56.8965C53.4504 57.1865 55.3716 57.6789 57.2461 58.2965C57.6685 58.4415 58.1233 58.5364 58.562 58.3949C59.0865 58.8299 59.7293 59.1773 60.0606 59.8003C60.356 60.3928 60.4884 61.048 60.7355 61.6603C61.0328 62.4444 61.5215 63.1318 61.9798 63.8282C62.4776 63.805 62.9896 63.7083 63.362 63.352C63.088 63.9249 62.8661 64.5211 62.6154 65.1047C62.4203 65.2981 62.2162 65.4824 62.0138 65.6667C61.0577 64.3133 60.5708 62.7094 59.8457 61.2342C59.595 60.7526 59.3032 60.2335 58.784 59.999C57.8924 59.5926 56.9131 59.4441 55.9713 59.2024C54.4495 58.8192 52.9062 58.5364 51.3754 58.2016C51.404 57.7648 51.4453 57.3298 51.4971 56.8965Z" fill="#D22941"/>
<path fill-rule="evenodd" clip-rule="evenodd" d="M58.7166 45.5961C59.2525 46.0784 59.587 46.7151 59.9111 47.3431L60.05 47.6111C60.6744 48.8193 61.3919 49.9724 62.0599 51.1576L62.1928 51.395L62.1929 51.3954C63.1017 53.1039 64.0615 54.7913 64.9698 56.5023L65.1507 56.8449L65.1512 56.846L65.217 56.9867C65.2844 57.1295 65.3542 57.2784 65.4035 57.4303C65.4695 57.6335 65.4995 57.8455 65.439 58.0626L65.4387 58.0631C64.8763 59.8736 64.2368 61.6635 63.382 63.3621L63.3804 63.3656L63.3774 63.3681C62.999 63.7302 62.4799 63.8272 61.9809 63.8505L61.9681 63.8512L61.961 63.8406C61.5034 63.1452 61.0129 62.4552 60.7145 61.6682C60.5907 61.3612 60.4955 61.0433 60.3948 60.7297C60.294 60.4156 60.1875 60.1052 60.0408 59.8107L60.0091 59.7538C59.8469 59.4731 59.6195 59.249 59.3696 59.0443C59.2362 58.9352 59.0967 58.8319 58.9575 58.7284C58.8184 58.6249 58.6794 58.5213 58.5477 58.4121L58.5435 58.4087L58.5415 58.4038C57.5587 56.1035 56.5504 53.8099 55.6318 51.4803C55.1119 50.2158 54.4714 48.9913 54.0664 47.6782L54.0528 47.6339L54.0959 47.6507C54.437 47.7839 54.5964 48.0755 54.7405 48.3728C54.8856 48.6723 55.0151 48.9763 55.2923 49.1565L55.2934 49.1571C55.6852 49.443 56.0763 49.7314 56.4365 50.0613C57.078 49.4608 57.5563 48.7121 58.0075 47.9607L58.008 47.9598C58.18 47.7021 58.1941 47.413 58.1797 47.112C58.1656 46.813 58.1229 46.4997 58.1891 46.2058L58.1901 46.2018L58.1925 46.1983C58.3367 45.982 58.5173 45.7904 58.6848 45.5982L58.6997 45.581L58.7166 45.5961ZM61.8819 53.6618C61.5264 54.0937 61.2342 54.5677 60.946 55.0426C60.6576 55.518 60.373 55.9942 60.0321 56.4334L60.031 56.4349C59.9809 56.5118 59.9217 56.5896 59.8628 56.6709C59.8044 56.7519 59.7465 56.8357 59.7004 56.923C59.6085 57.0976 59.5629 57.2883 59.6547 57.4985C59.8349 57.9847 60.0541 58.4552 60.277 58.9234C60.5001 59.3917 60.7266 59.8577 60.9224 60.3367L60.923 60.3383C61.0185 60.5317 61.1043 60.7329 61.1895 60.9356C61.2746 61.1381 61.3593 61.3424 61.4524 61.5416C61.6386 61.9398 61.8595 62.3191 62.1884 62.6272L62.2078 62.6455L62.2225 62.6231C63.0871 61.2922 63.6481 59.7878 64.1155 58.2816C64.2126 58.0419 64.1699 57.8176 64.0785 57.6066C64.0327 57.5011 63.9744 57.3984 63.9151 57.2986C63.8554 57.1985 63.7949 57.1015 63.7433 57.0058L63.7425 57.0046L63.6797 56.9036C63.3692 56.397 63.1146 55.8592 62.853 55.3236C62.5741 54.7528 62.2875 54.1846 61.9175 53.663L61.9006 53.6391L61.8819 53.6618ZM59.0705 48.6088C58.372 49.5419 57.7018 50.5076 57.1087 51.5092L57.1054 51.5147L57.1055 51.521C57.111 51.7763 57.1814 52.0177 57.2743 52.2509C57.3667 52.4828 57.4836 52.7116 57.58 52.9347L57.5806 52.9359C57.8166 53.406 58.0232 53.8901 58.2349 54.3728C58.4467 54.8554 58.6637 55.3365 58.9203 55.7993L58.9344 55.8249L58.9555 55.8044C59.2283 55.5377 59.4496 55.2324 59.6573 54.9185C59.8656 54.6038 60.0592 54.2821 60.2792 53.979L60.2793 53.9792L60.2799 53.9784C60.3557 53.8628 60.4356 53.7489 60.516 53.6346C60.5963 53.5205 60.6775 53.4061 60.7549 53.2897C60.91 53.0568 61.052 52.8152 61.1504 52.5506L61.1524 52.5455L61.1516 52.54C61.1234 52.3195 61.0379 52.118 60.9355 51.9253C60.8844 51.8289 60.8288 51.7342 60.774 51.6405C60.7328 51.5702 60.6918 51.5002 60.6534 51.4301L60.6158 51.3599L60.615 51.3586C60.3434 50.9127 60.1061 50.448 59.8668 49.9833C59.6275 49.5187 59.3864 49.0543 59.1073 48.6103L59.09 48.5828L59.0705 48.6088Z" fill="#D22941"/>
<path d="M56.1719 44.5298C56.605 44.0088 57.0581 43.4377 57.7349 43.2336C57.7061 43.4252 57.6793 43.6168 57.6507 43.8065C58.1143 43.9049 58.5816 43.9891 59.0562 44.0196C58.0589 44.3453 57.3409 45.1421 56.6695 45.9064C56.272 46.37 55.7923 46.798 55.5792 47.3851C55.6992 48.3286 56.0716 49.2201 56.4368 50.0919C56.0733 49.7572 55.6777 49.4654 55.2803 49.1754C54.7127 48.8066 54.752 47.9312 54.0879 47.6716C53.7996 47.2581 53.6223 46.7836 53.5166 46.2949C53.9965 46.2108 54.521 46.2323 54.9544 45.9816C55.4503 45.5824 55.7994 45.0381 56.1719 44.5298Z" fill="#D22941"/>
<path d="M54.3975 37.4513C55.4324 36.0083 57.2425 35.5035 58.4456 34.2521C58.6515 34.5063 58.8574 34.7606 59.0615 35.0165C57.4913 35.8705 55.8531 36.7405 54.6948 38.1405C55.1387 38.1315 55.5828 38.1226 56.025 38.0904C55.1836 38.8028 54.4048 39.6174 53.8604 40.5824C53.4522 41.302 53.2732 42.1184 53.0547 42.9079C52.7075 42.7663 52.3691 42.6052 52.0307 42.446C52.4192 40.858 52.7754 39.168 53.9463 37.9435C54.0967 37.7789 54.2507 37.6178 54.3975 37.4513Z" fill="#D22941"/>
<path d="M59.1063 32.7125C59.3175 32.6248 59.5306 32.5372 59.7437 32.4476C59.783 32.8504 59.8224 33.2532 59.8636 33.6577C59.9908 33.3875 60.1197 33.1189 60.2432 32.8468C60.193 33.7652 59.9334 34.9521 60.8107 35.5769C61.8634 36.4165 63.0326 37.2668 63.4229 38.631C62.5939 38.1673 61.7506 37.5783 60.7462 37.7467C60.7283 38.3589 60.6836 38.9712 60.6441 39.5834C60.4454 38.9658 60.1358 38.3965 59.8152 37.8361C59.4356 37.1845 59.3909 36.4148 59.2513 35.6915C58.0606 36.3235 57.1798 37.394 56.025 38.0904C55.5828 38.1226 55.1387 38.1315 54.6948 38.1405C55.8531 36.7405 57.4913 35.8705 59.0615 35.0165C58.8574 34.7606 58.6515 34.5063 58.4456 34.2521C58.6819 33.7456 58.8932 33.2281 59.1063 32.7125Z" fill="#D22941"/>
<path d="M59.98 30.5213C62.7318 31.7172 64.5096 34.3793 65.5069 37.1129C65.6251 37.5909 65.7181 38.0743 65.8166 38.5576C65.5892 38.3499 65.3636 38.1405 65.1381 37.931C65.2276 38.4825 65.276 39.0374 65.3099 39.5942C64.4166 37.4978 63.5929 35.3192 62.132 33.5378C61.6988 32.9883 61.1168 32.5872 60.5045 32.2633C60.4151 32.4566 60.3273 32.6517 60.2432 32.8468C60.1197 33.1189 59.9908 33.3875 59.8636 33.6577C59.8224 33.2532 59.783 32.8504 59.7437 32.4476C59.5306 32.5372 59.3175 32.6248 59.1063 32.7125C59.3892 31.9786 59.6649 31.241 59.98 30.5213Z" fill="#D22941"/>
<path d="M65.5069 37.1129C66.3644 39.2558 67.0072 41.5437 67.0072 43.8656C66.6276 44.3185 66.232 44.7589 65.8363 45.1992C64.712 44.7696 63.6251 44.1896 62.422 44.0106C61.3084 43.8424 60.1715 43.8781 59.0562 44.0196C58.5816 43.9891 58.1143 43.9049 57.6507 43.8065C57.6793 43.6168 57.7061 43.4252 57.7349 43.2336C58.4439 43.0385 59.16 42.8649 59.8815 42.7216C60.6871 42.7521 61.4947 42.7897 62.3021 42.7664C61.876 41.9285 61.38 41.1283 60.8626 40.3442C60.7749 40.0954 60.7086 39.8394 60.6441 39.5834C60.6836 38.9712 60.7283 38.3589 60.7462 37.7467C61.7506 37.5783 62.5939 38.1673 63.4229 38.631C63.5465 39.1216 63.7164 39.6675 63.5196 40.1598C63.276 40.4284 62.9717 40.6325 62.6871 40.8527C63.4479 42.0396 64.3629 43.2301 65.6554 43.8692C66.2606 42.4585 65.5409 41.0013 65.3099 39.5942C65.276 39.0374 65.2276 38.4825 65.1381 37.931C65.3636 38.1405 65.5892 38.3499 65.8166 38.5576C65.7181 38.0743 65.6251 37.5909 65.5069 37.1129Z" fill="#D22941"/>
<path d="M65.2921 33.0903C66.411 33.178 67.7484 33.4018 68.3518 34.4741C69.4528 36.0996 69.716 38.3947 68.6257 40.081C68.5773 39.0249 68.6311 37.9561 68.3947 36.916C68.205 35.9027 67.6481 35.0023 66.9786 34.2343C66.5184 33.7187 65.8668 33.4502 65.2921 33.0903Z" fill="#D22941"/>
<path d="M66.4594 29.5081C67.0304 29.7032 67.5802 29.9556 68.1227 30.2205C69.1521 30.9617 70.2478 31.6814 70.9711 32.7501C72.2243 34.5297 72.509 36.7907 72.4267 38.9139C72.3032 39.7588 72.2799 40.6879 71.7302 41.3897C71.7106 40.5197 71.861 39.6514 71.7893 38.7796C71.63 37.0216 71.2951 35.2296 70.3947 33.6846C69.4386 31.9894 67.7735 30.8919 66.4594 29.5081Z" fill="#D22941"/>
<path d="M67.3653 26.3251C68.3214 26.3788 69.1449 26.9051 69.9865 27.3062C71.2898 27.9506 72.3713 28.9674 73.2843 30.0845C75.3808 32.5621 76.2097 35.9332 75.9556 39.1287C75.7067 39.1663 75.4597 39.2039 75.2126 39.2432C75.2251 38.5272 75.2053 37.8058 75.0568 37.1022C74.5859 35.0846 73.9719 33.042 72.7346 31.3466C71.9362 30.2439 71.0051 29.236 69.9704 28.3498C69.2309 27.5227 68.3375 26.8532 67.3653 26.3251Z" fill="#D22941"/>
<path d="M75.0568 37.1022C75.2053 37.8058 75.2251 38.5272 75.2126 39.2432C75.4597 39.2039 75.7067 39.1663 75.9556 39.1287C75.9627 40.5072 75.447 41.7943 74.969 43.06C74.8957 43.1083 74.7524 43.2067 74.6808 43.2551C74.6719 43.1477 74.6521 42.9311 74.6432 42.8237C75.1391 41.4363 75.0979 39.9433 75.0102 38.4932C75.0227 38.0294 75.0549 37.5658 75.0568 37.1022Z" fill="#D22941"/>
<path d="M13.5947 40.9242C13.7738 40.6271 13.9456 40.3246 14.1157 40.022C14.25 40.1616 14.3861 40.3031 14.5221 40.4445C14.3359 41.3074 14.1283 42.1775 14.1372 43.0636C14.0924 43.4198 14.4093 43.6383 14.6063 43.8834C15.1971 43.495 15.77 43.0636 16.2123 42.5051C16.6491 41.9644 17.2077 41.3539 17.0215 40.6002C17.2077 40.8061 17.376 41.0245 17.5479 41.243C17.6481 40.91 17.7484 40.577 17.8487 40.244C18.1656 40.3872 18.4825 40.5304 18.7994 40.6701C18.4664 41.3592 18.0922 42.0252 17.6893 42.675C18.8817 42.6267 20.0973 42.5659 21.2611 42.8864C21.476 43.0314 21.6837 43.1853 21.8932 43.3393C21.5924 43.649 21.2862 43.9623 20.912 44.1842C19.2308 43.8387 17.444 43.9623 15.8506 44.6138C15.3618 44.7517 14.8587 45.0686 14.3431 44.9737C13.8131 44.6246 13.396 44.0965 13.1346 43.5236C12.9251 42.5212 13.2689 41.515 13.4998 40.5465C13.5231 40.6415 13.5714 40.8312 13.5947 40.9242Z" fill="#D22941"/>
<path d="M21.442 34.2485C22.842 35.226 24.2296 36.2268 25.5544 37.3044C25.8374 37.5282 26.1184 37.7521 26.3996 37.9776C26.7361 39.0105 27.3932 39.9218 27.5973 40.9994C27.6994 41.4954 27.8049 41.9912 27.9714 42.471C27.5544 42.6823 27.1425 42.9025 26.7253 43.1137C26.7827 41.9124 26.4121 40.7631 25.8176 39.7319C25.5187 38.7778 25.0675 37.8434 24.3281 37.1505C23.5475 36.4004 22.518 35.9905 21.6855 35.3084C21.3649 35.0595 21.5189 34.5976 21.442 34.2485Z" fill="#D22941"/>
<path d="M16.6151 33.2478C17.4136 32.0126 18.6955 31.1873 20.0294 30.627C20.6596 31.7638 21.0319 33.0223 21.442 34.2485C21.5189 34.5976 21.3649 35.0595 21.6855 35.3084C22.518 35.9905 23.5475 36.4004 24.3281 37.1505C25.0675 37.8434 25.5187 38.7778 25.8176 39.7319C24.3996 38.1906 22.6344 37.052 21.0319 35.7273C20.8207 36.4273 20.7311 37.1953 20.2638 37.7843C19.5782 38.6382 19.3131 39.7212 18.7994 40.6701C18.4825 40.5304 18.1656 40.3872 17.8487 40.244C17.7484 40.577 17.6481 40.91 17.5479 41.243C17.376 41.0245 17.2077 40.8061 17.0215 40.6002C16.8478 40.4427 16.6616 40.2959 16.5023 40.124C16.2964 38.9944 16.7565 37.8434 17.5389 37.0288C18.162 36.2769 19.0822 35.8455 19.7106 35.1043C19.9398 34.2021 19.7089 33.2568 19.4493 32.3849C18.538 32.5819 17.9596 33.357 17.4459 34.0713C16.1263 36.0137 15.224 38.2139 14.5221 40.4445C14.3861 40.3031 14.25 40.1616 14.1157 40.022C13.9456 40.3246 13.7738 40.6271 13.5947 40.9242C13.5714 40.8312 13.5231 40.6415 13.4998 40.5465C13.5213 40.4248 13.5661 40.1813 13.5893 40.0595C13.9958 37.5729 15.2419 35.3245 16.6151 33.2478Z" fill="#D22941"/>
<path d="M10.7677 36.9321C11.0273 35.969 11.2243 34.9325 11.8795 34.1465C12.2054 34.1484 12.5312 34.1501 12.8571 34.1501C11.8867 35.7166 11.2797 37.53 11.3782 39.3901C11.3424 39.6103 11.3066 39.8322 11.2708 40.0542C11.2099 40.0112 11.0918 39.9272 11.0309 39.8859C10.9969 39.8376 10.9288 39.7427 10.8948 39.6943C10.7158 38.7903 10.5081 37.8434 10.7677 36.9321Z" fill="#D22941"/>
<path d="M13.6323 33.1011C14.182 33.0652 14.7316 32.999 15.2777 32.9202C15.1882 33.0098 15.1004 33.0992 15.0145 33.1905C14.2231 33.314 13.4783 33.647 12.8571 34.1501C12.5312 34.1501 12.2054 34.1484 11.8795 34.1465C12.3844 33.6792 12.986 33.3284 13.6323 33.1011Z" fill="#D22941"/>
<path d="M13.0415 29.6441C13.2904 29.5941 13.541 29.5546 13.7899 29.517C13.4175 29.8553 13.0236 30.1687 12.6279 30.482C10.159 32.0431 8.62999 34.8143 8.33637 37.6894C8.08034 37.8219 7.82431 37.9543 7.56828 38.0868C7.4913 36.8586 7.78134 35.6521 8.19135 34.5046C8.83767 32.1791 10.9145 30.5715 13.0415 29.6441Z" fill="#D22941"/>
<path d="M7.56828 38.0868C7.82431 37.9543 8.08034 37.8219 8.33637 37.6894C8.31489 38.0098 8.30593 38.3302 8.30056 38.6507C8.27728 39.7893 8.45989 40.9171 8.52256 42.0503L8.41692 41.9626C8.16448 41.3235 7.93174 40.6754 7.70078 40.0273C7.62558 39.3828 7.5862 38.7349 7.56828 38.0868Z" fill="#D22941"/>
<path d="M11.4642 26.4737C11.6826 26.4164 11.9028 26.3591 12.1212 26.3054C12.0013 26.454 11.8795 26.6026 11.756 26.7494C10.2897 27.555 9.09728 28.7634 8.04094 30.0452C6.02498 32.5157 5.02773 35.6915 4.8093 38.844C4.06629 37.9722 4.3635 36.7405 4.23638 35.6915C4.66786 32.9918 6.00349 30.4426 8.0123 28.5844C9.00775 27.648 10.2753 27.1092 11.4642 26.4737Z" fill="#D22941"/>
<path d="M4.06987 40.4284C4.02511 38.8512 3.87293 37.2453 4.23638 35.6915C4.3635 36.7405 4.06629 37.9722 4.8093 38.844C4.81646 39.7356 4.84153 40.6288 4.95969 41.5132C5.02415 42.0664 5.12441 42.6142 5.1996 43.1674C4.62668 42.3493 4.28293 41.3987 4.06987 40.4284Z" fill="#D22941"/>
</svg>
